<mxfile host="app.diagrams.net" agent="Mozilla/5.0 (Windows NT 10.0; Win64; x64; rv:132.0) Gecko/20100101 Firefox/132.0" version="24.8.6">
  <diagram name="Pagina-1" id="GoSAWcyYOaItDTidLYn2">
    <mxGraphModel dx="2523" dy="1157" grid="1" gridSize="10" guides="1" tooltips="1" connect="1" arrows="1" fold="1" page="1" pageScale="1" pageWidth="1100" pageHeight="850" math="0" shadow="0">
      <root>
        <mxCell id="0" />
        <mxCell id="1" parent="0" />
        <mxCell id="Jwd7E4LVN35k8U-rOq1U-1" value="&lt;b&gt;&lt;font face=&quot;Century Gothic&quot;&gt;Account Registrato&lt;/font&gt;&lt;/b&gt;" style="swimlane;fontStyle=0;childLayout=stackLayout;horizontal=1;startSize=26;fillColor=none;horizontalStack=0;resizeParent=1;resizeParentMax=0;resizeLast=0;collapsible=1;marginBottom=0;whiteSpace=wrap;html=1;" vertex="1" parent="1">
          <mxGeometry x="80" y="110" width="140" height="160" as="geometry" />
        </mxCell>
        <mxCell id="Jwd7E4LVN35k8U-rOq1U-2" value="&lt;font face=&quot;Century Gothic&quot; style=&quot;font-size: 10px;&quot;&gt;+ anagrafica&lt;/font&gt;" style="text;strokeColor=none;fillColor=none;align=left;verticalAlign=top;spacingLeft=4;spacingRight=4;overflow=hidden;rotatable=0;points=[[0,0.5],[1,0.5]];portConstraint=eastwest;whiteSpace=wrap;html=1;" vertex="1" parent="Jwd7E4LVN35k8U-rOq1U-1">
          <mxGeometry y="26" width="140" height="134" as="geometry" />
        </mxCell>
        <mxCell id="Jwd7E4LVN35k8U-rOq1U-8" value="&lt;b&gt;&lt;font face=&quot;Century Gothic&quot;&gt;Gestore&lt;/font&gt;&lt;/b&gt;" style="swimlane;fontStyle=0;childLayout=stackLayout;horizontal=1;startSize=26;fillColor=none;horizontalStack=0;resizeParent=1;resizeParentMax=0;resizeLast=0;collapsible=1;marginBottom=0;whiteSpace=wrap;html=1;" vertex="1" parent="1">
          <mxGeometry x="380" y="320" width="140" height="52" as="geometry" />
        </mxCell>
        <mxCell id="Jwd7E4LVN35k8U-rOq1U-12" value="&lt;b&gt;&lt;font face=&quot;Century Gothic&quot;&gt;Admin&lt;/font&gt;&lt;/b&gt;" style="swimlane;fontStyle=0;childLayout=stackLayout;horizontal=1;startSize=26;fillColor=none;horizontalStack=0;resizeParent=1;resizeParentMax=0;resizeLast=0;collapsible=1;marginBottom=0;whiteSpace=wrap;html=1;" vertex="1" parent="1">
          <mxGeometry x="380" y="177" width="140" height="52" as="geometry" />
        </mxCell>
        <mxCell id="Jwd7E4LVN35k8U-rOq1U-14" value="&lt;b&gt;&lt;font face=&quot;Century Gothic&quot;&gt;Utente&lt;/font&gt;&lt;/b&gt;" style="swimlane;fontStyle=0;childLayout=stackLayout;horizontal=1;startSize=26;fillColor=none;horizontalStack=0;resizeParent=1;resizeParentMax=0;resizeLast=0;collapsible=1;marginBottom=0;whiteSpace=wrap;html=1;" vertex="1" parent="1">
          <mxGeometry x="380" y="58" width="140" height="52" as="geometry" />
        </mxCell>
        <mxCell id="Jwd7E4LVN35k8U-rOq1U-16" value="" style="endArrow=diamondThin;endFill=1;endSize=24;html=1;rounded=0;entryX=0.5;entryY=1;entryDx=0;entryDy=0;exitX=0.5;exitY=0;exitDx=0;exitDy=0;" edge="1" parent="1" source="Jwd7E4LVN35k8U-rOq1U-8" target="Jwd7E4LVN35k8U-rOq1U-12">
          <mxGeometry width="160" relative="1" as="geometry">
            <mxPoint x="500" y="250" as="sourcePoint" />
            <mxPoint x="440" y="220" as="targetPoint" />
          </mxGeometry>
        </mxCell>
        <mxCell id="Jwd7E4LVN35k8U-rOq1U-17" value="&lt;font face=&quot;Century Gothic&quot; style=&quot;font-size: 12px;&quot;&gt;crea&lt;/font&gt;" style="edgeLabel;html=1;align=center;verticalAlign=middle;resizable=0;points=[];" vertex="1" connectable="0" parent="Jwd7E4LVN35k8U-rOq1U-16">
          <mxGeometry x="-0.0963" y="1" relative="1" as="geometry">
            <mxPoint as="offset" />
          </mxGeometry>
        </mxCell>
        <mxCell id="Jwd7E4LVN35k8U-rOq1U-31" value="&lt;font face=&quot;Century Gothic&quot;&gt;&lt;b&gt;Evento&lt;/b&gt;&lt;/font&gt;" style="swimlane;fontStyle=0;childLayout=stackLayout;horizontal=1;startSize=26;fillColor=none;horizontalStack=0;resizeParent=1;resizeParentMax=0;resizeLast=0;collapsible=1;marginBottom=0;whiteSpace=wrap;html=1;" vertex="1" parent="1">
          <mxGeometry x="370" y="640" width="160" height="120" as="geometry" />
        </mxCell>
        <mxCell id="Jwd7E4LVN35k8U-rOq1U-32" value="&lt;div&gt;&lt;font face=&quot;Century Gothic&quot; style=&quot;font-size: 10px;&quot;&gt;- nomeEvento: String&lt;/font&gt;&lt;/div&gt;&lt;div&gt;&lt;font face=&quot;Century Gothic&quot; style=&quot;font-size: 10px;&quot;&gt;- dataOra: LocalDateTime&lt;/font&gt;&lt;/div&gt;&lt;div&gt;&lt;font face=&quot;Century Gothic&quot; style=&quot;font-size: 10px;&quot;&gt;- Categoria: String&lt;/font&gt;&lt;/div&gt;" style="text;strokeColor=none;fillColor=none;align=left;verticalAlign=top;spacingLeft=4;spacingRight=4;overflow=hidden;rotatable=0;points=[[0,0.5],[1,0.5]];portConstraint=eastwest;whiteSpace=wrap;html=1;" vertex="1" parent="Jwd7E4LVN35k8U-rOq1U-31">
          <mxGeometry y="26" width="160" height="94" as="geometry" />
        </mxCell>
        <mxCell id="Jwd7E4LVN35k8U-rOq1U-33" value="" style="endArrow=block;endSize=16;endFill=0;html=1;rounded=0;entryX=1;entryY=0.5;entryDx=0;entryDy=0;exitX=0;exitY=0.5;exitDx=0;exitDy=0;edgeStyle=orthogonalEdgeStyle;" edge="1" parent="1" source="Jwd7E4LVN35k8U-rOq1U-14" target="Jwd7E4LVN35k8U-rOq1U-2">
          <mxGeometry width="160" relative="1" as="geometry">
            <mxPoint x="150" y="380" as="sourcePoint" />
            <mxPoint x="310" y="380" as="targetPoint" />
          </mxGeometry>
        </mxCell>
        <mxCell id="Jwd7E4LVN35k8U-rOq1U-34" value="" style="endArrow=block;endSize=16;endFill=0;html=1;rounded=0;entryX=1;entryY=0.5;entryDx=0;entryDy=0;exitX=0;exitY=0.5;exitDx=0;exitDy=0;edgeStyle=orthogonalEdgeStyle;" edge="1" parent="1" source="Jwd7E4LVN35k8U-rOq1U-8" target="Jwd7E4LVN35k8U-rOq1U-2">
          <mxGeometry width="160" relative="1" as="geometry">
            <mxPoint x="410" y="230" as="sourcePoint" />
            <mxPoint x="250" y="349" as="targetPoint" />
          </mxGeometry>
        </mxCell>
        <mxCell id="Jwd7E4LVN35k8U-rOq1U-35" value="" style="endArrow=block;endSize=16;endFill=0;html=1;rounded=0;entryX=1;entryY=0.5;entryDx=0;entryDy=0;exitX=0;exitY=0.5;exitDx=0;exitDy=0;edgeStyle=orthogonalEdgeStyle;" edge="1" parent="1" source="Jwd7E4LVN35k8U-rOq1U-12" target="Jwd7E4LVN35k8U-rOq1U-2">
          <mxGeometry width="160" relative="1" as="geometry">
            <mxPoint x="400" y="104" as="sourcePoint" />
            <mxPoint x="240" y="223" as="targetPoint" />
          </mxGeometry>
        </mxCell>
        <mxCell id="Jwd7E4LVN35k8U-rOq1U-36" value="" style="endArrow=open;endFill=1;endSize=12;html=1;rounded=0;entryX=0.5;entryY=0;entryDx=0;entryDy=0;exitX=0.5;exitY=1;exitDx=0;exitDy=0;" edge="1" parent="1" source="Jwd7E4LVN35k8U-rOq1U-54" target="Jwd7E4LVN35k8U-rOq1U-31">
          <mxGeometry width="160" relative="1" as="geometry">
            <mxPoint x="200" y="430" as="sourcePoint" />
            <mxPoint x="690" y="260" as="targetPoint" />
          </mxGeometry>
        </mxCell>
        <mxCell id="Jwd7E4LVN35k8U-rOq1U-37" value="1" style="edgeLabel;html=1;align=center;verticalAlign=middle;resizable=0;points=[];" vertex="1" connectable="0" parent="Jwd7E4LVN35k8U-rOq1U-36">
          <mxGeometry x="-0.8281" y="-1" relative="1" as="geometry">
            <mxPoint x="11" y="-1" as="offset" />
          </mxGeometry>
        </mxCell>
        <mxCell id="Jwd7E4LVN35k8U-rOq1U-38" value="n" style="edgeLabel;html=1;align=center;verticalAlign=middle;resizable=0;points=[];" vertex="1" connectable="0" parent="Jwd7E4LVN35k8U-rOq1U-36">
          <mxGeometry x="0.6997" y="3" relative="1" as="geometry">
            <mxPoint x="10" y="6" as="offset" />
          </mxGeometry>
        </mxCell>
        <mxCell id="Jwd7E4LVN35k8U-rOq1U-39" value="&lt;font style=&quot;font-size: 12px;&quot; face=&quot;Century Gothic&quot;&gt;crea&lt;/font&gt;" style="edgeLabel;html=1;align=center;verticalAlign=middle;resizable=0;points=[];" vertex="1" connectable="0" parent="Jwd7E4LVN35k8U-rOq1U-36">
          <mxGeometry x="-0.1809" relative="1" as="geometry">
            <mxPoint as="offset" />
          </mxGeometry>
        </mxCell>
        <mxCell id="Jwd7E4LVN35k8U-rOq1U-40" value="" style="endArrow=diamondThin;endFill=1;endSize=24;html=1;rounded=0;entryX=1;entryY=0.5;entryDx=0;entryDy=0;exitX=0;exitY=0;exitDx=0;exitDy=0;exitPerimeter=0;" edge="1" parent="1" source="Jwd7E4LVN35k8U-rOq1U-44" target="Jwd7E4LVN35k8U-rOq1U-14">
          <mxGeometry width="160" relative="1" as="geometry">
            <mxPoint x="620" y="110" as="sourcePoint" />
            <mxPoint x="840" y="150" as="targetPoint" />
          </mxGeometry>
        </mxCell>
        <mxCell id="Jwd7E4LVN35k8U-rOq1U-41" value="&lt;font face=&quot;Century Gothic&quot;&gt;&lt;b&gt;Conto&lt;/b&gt;&lt;/font&gt;" style="swimlane;fontStyle=0;childLayout=stackLayout;horizontal=1;startSize=26;fillColor=none;horizontalStack=0;resizeParent=1;resizeParentMax=0;resizeLast=0;collapsible=1;marginBottom=0;whiteSpace=wrap;html=1;" vertex="1" parent="1">
          <mxGeometry x="640" y="58" width="170" height="110" as="geometry" />
        </mxCell>
        <mxCell id="Jwd7E4LVN35k8U-rOq1U-44" value="&lt;div&gt;&lt;font face=&quot;Century Gothic&quot; style=&quot;font-size: 10px;&quot;&gt;- numeroConto: long&lt;/font&gt;&lt;/div&gt;&lt;div&gt;&lt;font face=&quot;Century Gothic&quot; style=&quot;font-size: 10px;&quot;&gt;- dataCreazione: LocalDateTime &lt;br&gt;&lt;/font&gt;&lt;/div&gt;&lt;div&gt;&lt;font face=&quot;Century Gothic&quot; style=&quot;font-size: 10px;&quot;&gt;- stato: Enum&lt;br&gt;&lt;/font&gt;&lt;/div&gt;" style="text;strokeColor=none;fillColor=none;align=left;verticalAlign=top;spacingLeft=4;spacingRight=4;overflow=hidden;rotatable=0;points=[[0,0.5],[1,0.5]];portConstraint=eastwest;whiteSpace=wrap;html=1;" vertex="1" parent="Jwd7E4LVN35k8U-rOq1U-41">
          <mxGeometry y="26" width="170" height="84" as="geometry" />
        </mxCell>
        <mxCell id="Jwd7E4LVN35k8U-rOq1U-45" value="" style="endArrow=diamondThin;endFill=1;endSize=24;html=1;rounded=0;exitX=0;exitY=0.5;exitDx=0;exitDy=0;" edge="1" parent="1" source="Jwd7E4LVN35k8U-rOq1U-46">
          <mxGeometry width="160" relative="1" as="geometry">
            <mxPoint x="910" y="86" as="sourcePoint" />
            <mxPoint x="810" y="84" as="targetPoint" />
          </mxGeometry>
        </mxCell>
        <mxCell id="Jwd7E4LVN35k8U-rOq1U-46" value="&lt;font face=&quot;Century Gothic&quot;&gt;&lt;b&gt;Saldo Fedeltá&lt;/b&gt;&lt;/font&gt;" style="swimlane;fontStyle=0;childLayout=stackLayout;horizontal=1;startSize=26;fillColor=none;horizontalStack=0;resizeParent=1;resizeParentMax=0;resizeLast=0;collapsible=1;marginBottom=0;whiteSpace=wrap;html=1;" vertex="1" parent="1">
          <mxGeometry x="870" y="58" width="140" height="52" as="geometry" />
        </mxCell>
        <mxCell id="Jwd7E4LVN35k8U-rOq1U-47" value="&lt;font face=&quot;Century Gothic&quot; style=&quot;font-size: 10px;&quot;&gt;- punti: int&lt;/font&gt;" style="text;strokeColor=none;fillColor=none;align=left;verticalAlign=top;spacingLeft=4;spacingRight=4;overflow=hidden;rotatable=0;points=[[0,0.5],[1,0.5]];portConstraint=eastwest;whiteSpace=wrap;html=1;" vertex="1" parent="Jwd7E4LVN35k8U-rOq1U-46">
          <mxGeometry y="26" width="140" height="26" as="geometry" />
        </mxCell>
        <mxCell id="Jwd7E4LVN35k8U-rOq1U-50" value="" style="endArrow=open;endFill=1;endSize=12;html=1;rounded=0;exitX=0.5;exitY=0.999;exitDx=0;exitDy=0;exitPerimeter=0;entryX=0.5;entryY=0;entryDx=0;entryDy=0;" edge="1" parent="1" source="Jwd7E4LVN35k8U-rOq1U-47" target="Jwd7E4LVN35k8U-rOq1U-56">
          <mxGeometry width="160" relative="1" as="geometry">
            <mxPoint x="800" y="220" as="sourcePoint" />
            <mxPoint x="940" y="180" as="targetPoint" />
          </mxGeometry>
        </mxCell>
        <mxCell id="Jwd7E4LVN35k8U-rOq1U-51" value="&lt;font style=&quot;font-size: 12px;&quot; face=&quot;Century Gothic&quot;&gt;Riscuote&lt;/font&gt;" style="edgeLabel;html=1;align=center;verticalAlign=middle;resizable=0;points=[];" vertex="1" connectable="0" parent="Jwd7E4LVN35k8U-rOq1U-50">
          <mxGeometry x="-0.1996" relative="1" as="geometry">
            <mxPoint as="offset" />
          </mxGeometry>
        </mxCell>
        <mxCell id="Jwd7E4LVN35k8U-rOq1U-52" value="" style="endArrow=block;endSize=16;endFill=0;html=1;rounded=0;entryX=0.499;entryY=1.054;entryDx=0;entryDy=0;entryPerimeter=0;" edge="1" parent="1">
          <mxGeometry x="0.0084" width="160" relative="1" as="geometry">
            <mxPoint x="450" y="450" as="sourcePoint" />
            <mxPoint x="449.8599999999999" y="373.404" as="targetPoint" />
            <mxPoint as="offset" />
          </mxGeometry>
        </mxCell>
        <mxCell id="Jwd7E4LVN35k8U-rOq1U-53" value="&lt;font face=&quot;Century Gothic&quot;&gt;&lt;b&gt;Gestore Fedeltá&lt;/b&gt;&lt;/font&gt;" style="swimlane;fontStyle=0;childLayout=stackLayout;horizontal=1;startSize=26;fillColor=none;horizontalStack=0;resizeParent=1;resizeParentMax=0;resizeLast=0;collapsible=1;marginBottom=0;whiteSpace=wrap;html=1;" vertex="1" parent="1">
          <mxGeometry x="550" y="450" width="140" height="52" as="geometry" />
        </mxCell>
        <mxCell id="Jwd7E4LVN35k8U-rOq1U-54" value="&lt;font face=&quot;Century Gothic&quot;&gt;&lt;b&gt;Gestore Evento&lt;/b&gt;&lt;/font&gt;" style="swimlane;fontStyle=0;childLayout=stackLayout;horizontal=1;startSize=26;fillColor=none;horizontalStack=0;resizeParent=1;resizeParentMax=0;resizeLast=0;collapsible=1;marginBottom=0;whiteSpace=wrap;html=1;" vertex="1" parent="1">
          <mxGeometry x="380" y="450" width="140" height="52" as="geometry" />
        </mxCell>
        <mxCell id="Jwd7E4LVN35k8U-rOq1U-55" value="&lt;font face=&quot;Century Gothic&quot;&gt;&lt;b&gt;Gestore Referti&lt;/b&gt;&lt;b&gt;&lt;br&gt;&lt;/b&gt;&lt;/font&gt;" style="swimlane;fontStyle=0;childLayout=stackLayout;horizontal=1;startSize=26;fillColor=none;horizontalStack=0;resizeParent=1;resizeParentMax=0;resizeLast=0;collapsible=1;marginBottom=0;whiteSpace=wrap;html=1;" vertex="1" parent="1">
          <mxGeometry x="210" y="450" width="140" height="52" as="geometry" />
        </mxCell>
        <mxCell id="Jwd7E4LVN35k8U-rOq1U-56" value="&lt;font face=&quot;Century Gothic&quot;&gt;&lt;b&gt;Premio Fedeltá&lt;br&gt;&lt;/b&gt;&lt;/font&gt;" style="swimlane;fontStyle=0;childLayout=stackLayout;horizontal=1;startSize=26;fillColor=none;horizontalStack=0;resizeParent=1;resizeParentMax=0;resizeLast=0;collapsible=1;marginBottom=0;whiteSpace=wrap;html=1;" vertex="1" parent="1">
          <mxGeometry x="850" y="260" width="180" height="140" as="geometry" />
        </mxCell>
        <mxCell id="Jwd7E4LVN35k8U-rOq1U-57" value="&lt;div&gt;&lt;font style=&quot;font-size: 10px;&quot; face=&quot;Century Gothic&quot;&gt;- nome: String&lt;/font&gt;&lt;/div&gt;&lt;div&gt;&lt;font style=&quot;font-size: 10px;&quot; face=&quot;Century Gothic&quot;&gt;- descrizione: String&lt;br&gt;- dataDiAggiunta: LocalDateTime&lt;/font&gt;&lt;/div&gt;&lt;div&gt;&lt;font style=&quot;font-size: 10px;&quot; face=&quot;Century Gothic&quot;&gt;- scadenza: LocalDateTime&lt;/font&gt;&lt;/div&gt;&lt;div&gt;&lt;font style=&quot;font-size: 10px;&quot; face=&quot;Century Gothic&quot;&gt;- puntiNecessari: int&lt;br&gt;&lt;/font&gt;&lt;/div&gt;" style="text;strokeColor=none;fillColor=none;align=left;verticalAlign=top;spacingLeft=4;spacingRight=4;overflow=hidden;rotatable=0;points=[[0,0.5],[1,0.5]];portConstraint=eastwest;whiteSpace=wrap;html=1;" vertex="1" parent="Jwd7E4LVN35k8U-rOq1U-56">
          <mxGeometry y="26" width="180" height="114" as="geometry" />
        </mxCell>
        <mxCell id="Jwd7E4LVN35k8U-rOq1U-58" value="&lt;font face=&quot;Century Gothic&quot; style=&quot;font-size: 10px;&quot;&gt;n&lt;/font&gt;" style="text;html=1;align=center;verticalAlign=middle;resizable=0;points=[];autosize=1;strokeColor=none;fillColor=none;" vertex="1" parent="1">
          <mxGeometry x="945" y="230" width="30" height="30" as="geometry" />
        </mxCell>
        <mxCell id="Jwd7E4LVN35k8U-rOq1U-59" value="" style="endArrow=block;endSize=16;endFill=0;html=1;rounded=0;entryX=0.499;entryY=1.054;entryDx=0;entryDy=0;entryPerimeter=0;exitX=0.5;exitY=0;exitDx=0;exitDy=0;" edge="1" parent="1" source="Jwd7E4LVN35k8U-rOq1U-53">
          <mxGeometry x="0.0084" width="160" relative="1" as="geometry">
            <mxPoint x="449.85" y="450" as="sourcePoint" />
            <mxPoint x="449.7099999999999" y="373.404" as="targetPoint" />
            <mxPoint as="offset" />
            <Array as="points">
              <mxPoint x="620" y="430" />
              <mxPoint x="450" y="430" />
            </Array>
          </mxGeometry>
        </mxCell>
        <mxCell id="Jwd7E4LVN35k8U-rOq1U-60" value="" style="endArrow=block;endSize=16;endFill=0;html=1;rounded=0;entryX=0.499;entryY=1.054;entryDx=0;entryDy=0;entryPerimeter=0;exitX=0.5;exitY=0;exitDx=0;exitDy=0;" edge="1" parent="1" source="Jwd7E4LVN35k8U-rOq1U-55">
          <mxGeometry x="0.0084" width="160" relative="1" as="geometry">
            <mxPoint x="370" y="430" as="sourcePoint" />
            <mxPoint x="449.99999999999994" y="373.404" as="targetPoint" />
            <mxPoint as="offset" />
            <Array as="points">
              <mxPoint x="280" y="430" />
              <mxPoint x="450.29" y="430" />
            </Array>
          </mxGeometry>
        </mxCell>
        <mxCell id="Jwd7E4LVN35k8U-rOq1U-63" value="" style="endArrow=open;endFill=1;endSize=12;html=1;rounded=0;exitX=1;exitY=0.5;exitDx=0;exitDy=0;entryX=0;entryY=0.5;entryDx=0;entryDy=0;" edge="1" parent="1" source="Jwd7E4LVN35k8U-rOq1U-53" target="Jwd7E4LVN35k8U-rOq1U-57">
          <mxGeometry width="160" relative="1" as="geometry">
            <mxPoint x="720" y="475" as="sourcePoint" />
            <mxPoint x="880" y="342" as="targetPoint" />
            <Array as="points">
              <mxPoint x="790" y="475" />
              <mxPoint x="790" y="409" />
              <mxPoint x="790" y="342" />
            </Array>
          </mxGeometry>
        </mxCell>
        <mxCell id="Jwd7E4LVN35k8U-rOq1U-64" value="&lt;font face=&quot;Century Gothic&quot; style=&quot;font-size: 12px;&quot;&gt;Aggiunge&lt;/font&gt;" style="edgeLabel;html=1;align=center;verticalAlign=middle;resizable=0;points=[];" vertex="1" connectable="0" parent="Jwd7E4LVN35k8U-rOq1U-63">
          <mxGeometry x="-0.1996" relative="1" as="geometry">
            <mxPoint x="20" y="-33" as="offset" />
          </mxGeometry>
        </mxCell>
        <mxCell id="Jwd7E4LVN35k8U-rOq1U-65" value="&lt;font face=&quot;Century Gothic&quot; style=&quot;font-size: 10px;&quot;&gt;1&lt;/font&gt;" style="text;html=1;align=center;verticalAlign=middle;resizable=0;points=[];autosize=1;strokeColor=none;fillColor=none;" vertex="1" parent="1">
          <mxGeometry x="690" y="472" width="30" height="30" as="geometry" />
        </mxCell>
        <mxCell id="Jwd7E4LVN35k8U-rOq1U-66" value="&lt;font face=&quot;Century Gothic&quot;&gt;n&lt;/font&gt;" style="text;html=1;align=center;verticalAlign=middle;resizable=0;points=[];autosize=1;strokeColor=none;fillColor=none;" vertex="1" parent="1">
          <mxGeometry x="820" y="342" width="30" height="30" as="geometry" />
        </mxCell>
        <mxCell id="Jwd7E4LVN35k8U-rOq1U-67" value="&lt;font face=&quot;Century Gothic&quot;&gt;&lt;b&gt;Saldo&lt;br&gt;&lt;/b&gt;&lt;/font&gt;" style="swimlane;fontStyle=0;childLayout=stackLayout;horizontal=1;startSize=26;fillColor=none;horizontalStack=0;resizeParent=1;resizeParentMax=0;resizeLast=0;collapsible=1;marginBottom=0;whiteSpace=wrap;html=1;" vertex="1" parent="1">
          <mxGeometry x="820" y="520" width="140" height="52" as="geometry" />
        </mxCell>
        <mxCell id="Jwd7E4LVN35k8U-rOq1U-68" value="&lt;font face=&quot;Century Gothic&quot; style=&quot;font-size: 10px;&quot;&gt;- saldo: double&lt;/font&gt;" style="text;strokeColor=none;fillColor=none;align=left;verticalAlign=top;spacingLeft=4;spacingRight=4;overflow=hidden;rotatable=0;points=[[0,0.5],[1,0.5]];portConstraint=eastwest;whiteSpace=wrap;html=1;" vertex="1" parent="Jwd7E4LVN35k8U-rOq1U-67">
          <mxGeometry y="26" width="140" height="26" as="geometry" />
        </mxCell>
        <mxCell id="Jwd7E4LVN35k8U-rOq1U-69" value="" style="endArrow=diamondThin;endFill=1;endSize=24;html=1;rounded=0;entryX=0.587;entryY=1.008;entryDx=0;entryDy=0;entryPerimeter=0;exitX=0;exitY=0.5;exitDx=0;exitDy=0;" edge="1" parent="1" source="Jwd7E4LVN35k8U-rOq1U-68">
          <mxGeometry width="160" relative="1" as="geometry">
            <mxPoint x="770" y="550" as="sourcePoint" />
            <mxPoint x="770" y="168.00200000000004" as="targetPoint" />
            <Array as="points">
              <mxPoint x="770" y="559" />
            </Array>
          </mxGeometry>
        </mxCell>
        <mxCell id="Jwd7E4LVN35k8U-rOq1U-70" value="&lt;b&gt;&lt;font face=&quot;Century Gothic&quot;&gt;Scommessa&lt;/font&gt;&lt;/b&gt;" style="swimlane;fontStyle=0;childLayout=stackLayout;horizontal=1;startSize=26;fillColor=none;horizontalStack=0;resizeParent=1;resizeParentMax=0;resizeLast=0;collapsible=1;marginBottom=0;whiteSpace=wrap;html=1;" vertex="1" parent="1">
          <mxGeometry x="620" y="640" width="200" height="150" as="geometry" />
        </mxCell>
        <mxCell id="Jwd7E4LVN35k8U-rOq1U-71" value="&lt;font face=&quot;Century Gothic&quot; style=&quot;font-size: 10px;&quot;&gt;- listaQuote: List&amp;lt;Quote&amp;gt;&lt;br&gt;&lt;/font&gt;&lt;div&gt;&lt;font face=&quot;Century Gothic&quot; style=&quot;font-size: 10px;&quot;&gt;- stato: Enum&lt;/font&gt;&lt;/div&gt;&lt;div&gt;&lt;font face=&quot;Century Gothic&quot; style=&quot;font-size: 10px;&quot;&gt;- tipo: Enum&lt;br&gt;- importo: double&lt;/font&gt;&lt;/div&gt;&lt;div&gt;&lt;font face=&quot;Century Gothic&quot; style=&quot;font-size: 10px;&quot;&gt;- vincitaPotenziale: double&lt;/font&gt;&lt;font face=&quot;Century Gothic&quot; style=&quot;font-size: 10px;&quot;&gt;&lt;br&gt;&lt;/font&gt;&lt;/div&gt;" style="text;strokeColor=none;fillColor=none;align=left;verticalAlign=top;spacingLeft=4;spacingRight=4;overflow=hidden;rotatable=0;points=[[0,0.5],[1,0.5]];portConstraint=eastwest;whiteSpace=wrap;html=1;" vertex="1" parent="Jwd7E4LVN35k8U-rOq1U-70">
          <mxGeometry y="26" width="200" height="124" as="geometry" />
        </mxCell>
        <mxCell id="Jwd7E4LVN35k8U-rOq1U-81" value="" style="endArrow=open;endFill=1;endSize=12;html=1;rounded=0;entryX=0.5;entryY=0;entryDx=0;entryDy=0;exitX=0.471;exitY=1;exitDx=0;exitDy=0;exitPerimeter=0;" edge="1" parent="1" source="Jwd7E4LVN35k8U-rOq1U-44" target="Jwd7E4LVN35k8U-rOq1U-70">
          <mxGeometry width="160" relative="1" as="geometry">
            <mxPoint x="720" y="170" as="sourcePoint" />
            <mxPoint x="830" y="390" as="targetPoint" />
          </mxGeometry>
        </mxCell>
        <mxCell id="Jwd7E4LVN35k8U-rOq1U-82" value="&lt;font style=&quot;font-size: 12px;&quot; face=&quot;Century Gothic&quot;&gt;Effettua&lt;/font&gt;" style="edgeLabel;html=1;align=center;verticalAlign=middle;resizable=0;points=[];" vertex="1" connectable="0" parent="Jwd7E4LVN35k8U-rOq1U-81">
          <mxGeometry x="-0.5127" y="-2" relative="1" as="geometry">
            <mxPoint as="offset" />
          </mxGeometry>
        </mxCell>
        <mxCell id="Jwd7E4LVN35k8U-rOq1U-83" value="&lt;font face=&quot;Century Gothic&quot; style=&quot;font-size: 12px;&quot;&gt;n&lt;/font&gt;" style="text;html=1;align=center;verticalAlign=middle;resizable=0;points=[];autosize=1;strokeColor=none;fillColor=none;" vertex="1" parent="1">
          <mxGeometry x="690" y="610" width="30" height="30" as="geometry" />
        </mxCell>
        <mxCell id="Jwd7E4LVN35k8U-rOq1U-84" value="&lt;font face=&quot;Century Gothic&quot;&gt;&lt;b&gt;Quota&lt;/b&gt;&lt;/font&gt;" style="swimlane;fontStyle=0;childLayout=stackLayout;horizontal=1;startSize=26;fillColor=none;horizontalStack=0;resizeParent=1;resizeParentMax=0;resizeLast=0;collapsible=1;marginBottom=0;whiteSpace=wrap;html=1;" vertex="1" parent="1">
          <mxGeometry x="370" y="850" width="200" height="150" as="geometry" />
        </mxCell>
        <mxCell id="Jwd7E4LVN35k8U-rOq1U-85" value="&lt;div&gt;&lt;font face=&quot;Century Gothic&quot; style=&quot;font-size: 10px;&quot;&gt;- moltiplicatore: double&lt;/font&gt;&lt;/div&gt;&lt;div&gt;&lt;font face=&quot;Century Gothic&quot; style=&quot;font-size: 10px;&quot;&gt;- esito: String&lt;/font&gt;&lt;/div&gt;&lt;div&gt;&lt;font face=&quot;Century Gothic&quot; style=&quot;font-size: 10px;&quot;&gt;- stato: Enum&lt;/font&gt;&lt;/div&gt;&lt;div&gt;&lt;font face=&quot;Century Gothic&quot; style=&quot;font-size: 10px;&quot;&gt;- referto: String&lt;br&gt; &lt;/font&gt;&lt;/div&gt;" style="text;strokeColor=none;fillColor=none;align=left;verticalAlign=top;spacingLeft=4;spacingRight=4;overflow=hidden;rotatable=0;points=[[0,0.5],[1,0.5]];portConstraint=eastwest;whiteSpace=wrap;html=1;" vertex="1" parent="Jwd7E4LVN35k8U-rOq1U-84">
          <mxGeometry y="26" width="200" height="124" as="geometry" />
        </mxCell>
        <mxCell id="Jwd7E4LVN35k8U-rOq1U-86" value="" style="endArrow=diamondThin;endFill=1;endSize=24;html=1;rounded=0;entryX=0.5;entryY=1;entryDx=0;entryDy=0;exitX=0.5;exitY=0;exitDx=0;exitDy=0;" edge="1" parent="1">
          <mxGeometry width="160" relative="1" as="geometry">
            <mxPoint x="449.41" y="850" as="sourcePoint" />
            <mxPoint x="449.41" y="759" as="targetPoint" />
          </mxGeometry>
        </mxCell>
        <mxCell id="Jwd7E4LVN35k8U-rOq1U-89" value="" style="endArrow=diamondThin;endFill=1;endSize=24;html=1;rounded=0;entryX=1.002;entryY=0.357;entryDx=0;entryDy=0;exitX=0;exitY=-0.023;exitDx=0;exitDy=0;exitPerimeter=0;entryPerimeter=0;" edge="1" parent="1" source="Jwd7E4LVN35k8U-rOq1U-94" target="Jwd7E4LVN35k8U-rOq1U-85">
          <mxGeometry width="160" relative="1" as="geometry">
            <mxPoint x="840.1999999999998" y="953.9479999999999" as="sourcePoint" />
            <mxPoint x="590" y="956.05" as="targetPoint" />
            <Array as="points">
              <mxPoint x="730" y="920" />
            </Array>
          </mxGeometry>
        </mxCell>
        <mxCell id="Jwd7E4LVN35k8U-rOq1U-90" value="&lt;font face=&quot;Century Gothic&quot;&gt;n&lt;/font&gt;" style="text;html=1;align=center;verticalAlign=middle;resizable=0;points=[];autosize=1;strokeColor=none;fillColor=none;" vertex="1" parent="1">
          <mxGeometry x="580" y="940" width="30" height="30" as="geometry" />
        </mxCell>
        <mxCell id="Jwd7E4LVN35k8U-rOq1U-91" value="" style="endArrow=open;endFill=1;endSize=12;html=1;rounded=0;exitX=0.5;exitY=1;exitDx=0;exitDy=0;entryX=0;entryY=0.5;entryDx=0;entryDy=0;" edge="1" parent="1" source="Jwd7E4LVN35k8U-rOq1U-55" target="Jwd7E4LVN35k8U-rOq1U-85">
          <mxGeometry width="160" relative="1" as="geometry">
            <mxPoint x="490" y="790" as="sourcePoint" />
            <mxPoint x="650" y="790" as="targetPoint" />
            <Array as="points">
              <mxPoint x="280" y="938" />
            </Array>
          </mxGeometry>
        </mxCell>
        <mxCell id="Jwd7E4LVN35k8U-rOq1U-92" value="corregge" style="edgeLabel;html=1;align=center;verticalAlign=middle;resizable=0;points=[];" vertex="1" connectable="0" parent="Jwd7E4LVN35k8U-rOq1U-91">
          <mxGeometry x="-0.3156" y="-2" relative="1" as="geometry">
            <mxPoint as="offset" />
          </mxGeometry>
        </mxCell>
        <mxCell id="Jwd7E4LVN35k8U-rOq1U-93" value="&lt;font face=&quot;Century Gothic&quot;&gt;&lt;b&gt;Scontrino&lt;/b&gt;&lt;/font&gt;" style="swimlane;fontStyle=0;childLayout=stackLayout;horizontal=1;startSize=26;fillColor=none;horizontalStack=0;resizeParent=1;resizeParentMax=0;resizeLast=0;collapsible=1;marginBottom=0;whiteSpace=wrap;html=1;" vertex="1" parent="1">
          <mxGeometry x="820" y="895" width="200" height="60" as="geometry" />
        </mxCell>
        <mxCell id="Jwd7E4LVN35k8U-rOq1U-94" value="&lt;font face=&quot;Century Gothic&quot; style=&quot;font-size: 10px;&quot;&gt;- listaQuote: List&amp;lt;Quote&amp;gt;&lt;/font&gt;" style="text;strokeColor=none;fillColor=none;align=left;verticalAlign=top;spacingLeft=4;spacingRight=4;overflow=hidden;rotatable=0;points=[[0,0.5],[1,0.5]];portConstraint=eastwest;whiteSpace=wrap;html=1;" vertex="1" parent="Jwd7E4LVN35k8U-rOq1U-93">
          <mxGeometry y="26" width="200" height="34" as="geometry" />
        </mxCell>
        <mxCell id="Jwd7E4LVN35k8U-rOq1U-96" value="" style="endArrow=open;endFill=1;endSize=12;html=1;rounded=0;entryX=1;entryY=0.5;entryDx=0;entryDy=0;exitX=0.5;exitY=0;exitDx=0;exitDy=0;" edge="1" parent="1" source="Jwd7E4LVN35k8U-rOq1U-93" target="Jwd7E4LVN35k8U-rOq1U-71">
          <mxGeometry width="160" relative="1" as="geometry">
            <mxPoint x="840" y="740" as="sourcePoint" />
            <mxPoint x="1000" y="740" as="targetPoint" />
            <Array as="points">
              <mxPoint x="920" y="728" />
            </Array>
          </mxGeometry>
        </mxCell>
        <mxCell id="Jwd7E4LVN35k8U-rOq1U-97" value="Diventa" style="edgeLabel;html=1;align=center;verticalAlign=middle;resizable=0;points=[];" vertex="1" connectable="0" parent="Jwd7E4LVN35k8U-rOq1U-96">
          <mxGeometry x="-0.3269" y="-1" relative="1" as="geometry">
            <mxPoint as="offset" />
          </mxGeometry>
        </mxCell>
      </root>
    </mxGraphModel>
  </diagram>
</mxfile>
